<?xml version="1.0" standalone="no"?>
<!DOCTYPE svg PUBLIC "-//W3C//DTD SVG 20010904//EN"
 "http://www.w3.org/TR/2001/REC-SVG-20010904/DTD/svg10.dtd">
<svg version="1.0" xmlns="http://www.w3.org/2000/svg"
 width="310.000000pt" height="310.000000pt" viewBox="0 0 310.000000 310.000000"
 preserveAspectRatio="xMidYMid meet">
<metadata>
Created by potrace 1.11, written by Peter Selinger 2001-2013
</metadata>
<g transform="translate(0.000000,310.000000) scale(0.100000,-0.100000)"
fill="#000000" stroke="none">
<path d="M1210 3089 c0 -6 12 -39 26 -73 15 -33 35 -81 46 -106 10 -25 26 -58
33 -73 8 -16 15 -33 15 -38 0 -6 12 -36 26 -67 40 -88 50 -112 79 -182 15 -36
33 -78 40 -95 7 -16 32 -75 55 -130 23 -55 48 -113 55 -130 7 -16 25 -59 40
-95 15 -36 33 -78 40 -95 7 -16 26 -59 41 -95 40 -97 64 -152 79 -185 8 -16
26 -59 40 -95 14 -36 32 -78 40 -95 7 -16 18 -42 24 -57 15 -39 37 -35 45 6 4
19 6 107 5 196 0 108 3 165 11 175 9 11 84 14 398 17 l387 3 60 30 c111 56
248 215 270 313 4 18 13 36 21 39 11 4 14 38 14 174 0 101 -4 169 -10 169 -5
0 -14 19 -20 43 -35 130 -98 247 -172 319 -52 49 -127 98 -151 98 -8 0 -26 9
-40 20 -25 20 -40 20 -761 20 -539 0 -736 -3 -736 -11z m1387 -352 c89 -48
183 -199 183 -294 0 -104 -73 -212 -174 -259 -50 -23 -56 -24 -353 -24 -183 0
-304 4 -308 10 -4 7 -9 454 -5 558 0 27 51 32 335 29 254 -2 294 -4 322 -20z"/>
<path d="M890 2618 c-11 -18 -23 -44 -27 -58 -3 -14 -14 -41 -24 -60 -9 -19
-29 -66 -44 -105 -15 -38 -30 -74 -34 -80 -4 -5 -22 -48 -40 -94 -18 -46 -36
-91 -41 -100 -4 -9 -18 -41 -30 -71 -13 -30 -32 -75 -43 -99 -36 -78 -43 -76
298 -76 340 0 333 -2 298 76 -12 24 -39 94 -62 154 -23 61 -51 129 -62 153
-10 23 -19 48 -19 55 -1 6 -9 30 -20 52 -11 22 -19 46 -20 52 0 7 -9 32 -19
55 -11 24 -31 72 -45 108 -13 35 -29 66 -35 68 -6 2 -20 -11 -31 -30z"/>
<path d="M463 1528 c-20 -39 -61 -132 -73 -168 -4 -14 -15 -38 -24 -55 -9 -16
-16 -35 -16 -40 0 -6 -9 -28 -20 -50 -11 -22 -20 -54 -20 -72 0 -28 4 -33 23
-33 510 -2 1151 1 1159 6 13 8 2 64 -24 123 -43 95 -56 128 -83 196 -15 39
-36 82 -47 98 l-19 27 -419 0 -419 0 -18 -32z"/>
<path d="M183 925 c-13 -19 -23 -39 -23 -45 0 -8 -37 -105 -100 -260 -10 -25
-23 -57 -29 -72 -6 -16 -15 -28 -21 -28 -5 0 -10 -11 -10 -25 0 -22 4 -25 33
-25 31 0 34 4 61 68 16 37 34 73 39 80 12 15 160 17 187 2 11 -6 24 -29 31
-53 20 -76 76 -126 92 -83 3 7 -36 116 -87 242 -89 223 -92 229 -121 232 -25
2 -34 -4 -52 -33z m69 -107 c7 -13 18 -40 24 -60 17 -53 2 -70 -56 -66 -52 4
-61 20 -36 73 9 18 16 39 16 47 0 34 34 38 52 6z"/>
<path d="M545 938 c-3 -13 -4 -122 -3 -243 l3 -220 25 0 25 0 -4 235 c-1 129
-5 238 -8 243 -9 15 -33 6 -38 -15z"/>
<path d="M1886 924 c-8 -20 -8 -422 0 -451 7 -25 47 -32 60 -11 4 6 10 53 13
102 l6 91 79 8 c63 6 85 13 110 34 39 32 44 45 45 112 1 49 -2 56 -38 92 l-39
39 -115 0 c-95 0 -116 -3 -121 -16z m219 -59 c33 -32 34 -93 2 -123 -27 -26
-96 -38 -126 -23 -18 10 -21 20 -21 85 0 40 3 76 7 79 3 4 31 7 60 7 44 0 58
-5 78 -25z"/>
<path d="M2324 927 c-2 -7 -3 -113 -2 -236 3 -203 5 -225 21 -235 33 -20 47
16 47 125 0 84 3 100 22 125 30 39 38 44 74 44 57 0 62 -12 66 -152 3 -135 12
-163 46 -142 14 9 17 30 20 131 3 138 -9 182 -61 213 -41 25 -61 25 -104 -1
-51 -31 -63 -21 -63 54 0 36 -5 68 -12 75 -16 16 -47 15 -54 -1z"/>
<path d="M775 820 c-11 -4 -30 -22 -42 -38 -28 -37 -32 -125 -8 -159 9 -13 14
-42 14 -78 -1 -31 3 -61 9 -67 5 -5 45 -14 88 -19 111 -12 137 -49 61 -85 -28
-13 -43 -14 -83 -6 -51 11 -84 2 -84 -22 0 -18 23 -26 95 -33 79 -6 132 12
162 56 30 44 29 64 -6 103 -26 29 -34 32 -107 37 -70 5 -79 8 -79 26 0 17 9
21 50 26 61 8 110 31 126 62 7 12 13 49 15 81 2 52 5 62 28 79 21 15 24 22 15
33 -9 11 -39 14 -123 13 -61 0 -120 -4 -131 -9z m120 -57 c41 -40 38 -110 -6
-133 -25 -14 -72 -12 -93 3 -28 21 -32 87 -6 120 25 32 78 37 105 10z"/>
<path d="M1173 820 c-52 -22 -14 -52 55 -43 59 7 92 -12 92 -52 0 -32 -17 -42
-85 -50 -51 -6 -65 -12 -97 -45 -42 -42 -48 -75 -21 -120 30 -51 89 -63 163
-34 31 13 44 14 53 5 15 -15 44 -14 49 2 2 6 2 78 -1 159 -7 180 -8 181 -114
185 -39 2 -82 -2 -94 -7z m145 -202 c18 -18 15 -33 -13 -66 -40 -48 -116 -55
-130 -12 -9 29 6 71 29 80 32 13 100 12 114 -2z"/>
</g>
</svg>
